<?xml version="1.0" encoding="UTF-8" standalone="no"?>
<svg
   xmlns:dc="http://purl.org/dc/elements/1.1/"
   xmlns:cc="http://creativecommons.org/ns#"
   xmlns:rdf="http://www.w3.org/1999/02/22-rdf-syntax-ns#"
   xmlns:svg="http://www.w3.org/2000/svg"
   xmlns="http://www.w3.org/2000/svg"
   xmlns:sodipodi="http://sodipodi.sourceforge.net/DTD/sodipodi-0.dtd"
   xmlns:inkscape="http://www.inkscape.org/namespaces/inkscape"
   viewBox="0 0 1135.0872 184.32693"
   version="1.1"
   id="svg1160"
   inkscape:version="1.0.1 (3bc2e813f5, 2020-09-07)"
   sodipodi:docname="Watch_Dogs_(2014).svg">
  <defs
     id="defs1154" />
  <sodipodi:namedview
     id="base"
     pagecolor="#ffffff"
     bordercolor="#666666"
     borderopacity="1.0"
     inkscape:pageopacity="0.0"
     inkscape:pageshadow="2"
     inkscape:zoom="0.60876381"
     inkscape:cx="567.54359"
     inkscape:cy="92.163465"
     inkscape:document-units="mm"
     inkscape:current-layer="layer1"
     inkscape:document-rotation="0"
     showgrid="false"
     showguides="true"
     inkscape:guide-bbox="true"
     inkscape:window-width="1366"
     inkscape:window-height="706"
     inkscape:window-x="-8"
     inkscape:window-y="-8"
     inkscape:window-maximized="1" />
  <g
     inkscape:label="Layer 1"
     inkscape:groupmode="layer"
     id="layer1"
     transform="translate(76.283183,-132.46398)">
    <g
       id="g1755">
      <path
         id="rect1347"
         style="fill:#000000;fill-opacity:1;fill-rule:evenodd;stroke:none;stroke-width:4.94708;stroke-miterlimit:4;stroke-dasharray:none;paint-order:stroke fill markers"
         d="m -76.283183,132.46403 14.423624,79.21234 h 10.90708 v 56.61867 h 7.732165 v 22.63972 l -11.662626,-2e-5 v 3.51111 h 32.866021 v -26.15081 h 16.3409875 l 0.020419,-56.61866 h 2.870921 L 2.980261,174.34165 h 0.4294811 l 5.2709598,33.89889 -0.033246,32.98357 H 19.084924 v 57.35704 h 21.564957 v -7.31917 h 3.674843 V 268.16423 H 57.967436 V 233.48305 H 37.063154 v -3.98811 h 23.647388 v -17.81862 h 7.541599 L 82.673199,132.46398 H 53.189387 L 42.326928,205.0704 H 29.488321 L 17.938171,132.46398 H -11.545641 L -23.095792,205.0704 H -35.936951 L -46.79941,132.46398 Z"
         sodipodi:nodetypes="cccccccccccccccccccccccccccccccccccccccc" />
      <path
         id="path1384"
         style="fill:#000000;fill-opacity:1;fill-rule:evenodd;stroke:none;stroke-width:4.94708;stroke-miterlimit:4;stroke-dasharray:none;paint-order:stroke fill markers"
         d="M 124.13669,136.41378 103.1736,215.60823 H 92.339272 v 52.36681 h -9.798967 v 24.43733 H 80.45167 v 3.54839 h 24.13055 v -27.53323 h 16.6216 V 251.07516 H 162.425 v 39.98996 h 29.91841 v -10.49178 h -14.04782 v -4.957 h 14.04782 V 211.67637 H 182.0894 l -19.9226,-75.26259 z m -31.797418,79.19445 v -4.01622 H 74.075816 v 4.01622 z m 50.600278,-52.7017 h 0.42693 l 10.48156,48.76984 h 2.84279 v 17.37892 H 128.72045 Z M 162.425,293.73407 v 4.79339 h 37.19158 v -4.79339 z"
         sodipodi:nodetypes="cccccccccccccccccccccccccccccccccccccccc" />
      <path
         id="path1283"
         style="font-style:normal;font-variant:normal;font-weight:normal;font-stretch:normal;font-size:43.1872px;line-height:1.25;font-family:'Helvetica Neue LT';-inkscape-font-specification:'Helvetica Neue LT';text-decoration:none;text-decoration-line:none;text-decoration-color:#000000;letter-spacing:0px;word-spacing:0px;fill:#000000;stroke-width:8.01189"
         d="m 189.1018,136.41378 v 25.21195 h 33.98532 v 137.42375 h 28.00636 v -2.75284 l -8.73997,10e-6 v -5.89535 h 10.84421 v -16.45175 h -15.1196 v -4.62701 h 15.1196 V 161.62573 h 33.32875 v -25.21195 z m 64.09592,132.90876 v 4.62701 h 29.05688 v -4.62701 z"
         sodipodi:nodetypes="cccccccccccccccccccccc" />
      <path
         id="path1287"
         style="font-style:normal;font-variant:normal;font-weight:normal;font-stretch:normal;font-size:43.1872px;line-height:1.25;font-family:'Helvetica Neue LT';-inkscape-font-specification:'Helvetica Neue LT';text-decoration:none;text-decoration-line:none;text-decoration-color:#000000;letter-spacing:0px;word-spacing:0px;fill:#000000;stroke-width:8.01189"
         d="m 350.16988,133.48406 c -11.53712,0 -20.72453,1.99407 -27.56134,5.98215 -6.83682,3.84576 -12.10596,9.25948 -15.80924,16.23872 -3.56084,6.97925 -5.91128,15.38404 -7.05075,25.21195 -0.96548,9.37892 -1.48276,19.64431 -1.48276,30.75949 v 9.58423 h -10.55568 v 27.69172 h 14.7892 v 26.26521 h 21.72236 v 5.61146 h -13.41126 v 14.73807 h 16.66054 v 3.03966 h 14.9068 v -3.03966 h 43.54953 v -27.20343 h 11.90039 v -49.0843 h -28.63762 v 48.59089 H 329.04062 V 216.70241 H 317.9532 v -5.02604 h 11.08742 c 0.0526,-9.3953 0.32232,-17.4939 0.83342,-24.13822 0.56973,-7.54895 1.56674,-13.6008 2.99107,-18.15863 1.42434,-4.70037 3.34603,-8.04772 5.7674,-10.04184 2.56381,-2.13644 5.76919,-3.20581 9.6149,-3.20581 6.97924,0 11.7499,2.56483 14.3137,7.69243 2.70624,4.98517 4.05968,13.03098 4.05968,24.14078 h 30.76461 c 0,-5.55493 -0.4262,-11.4646 -1.2808,-17.73171 -0.0949,-0.85379 -0.21499,-1.69731 -0.35279,-2.53345 h -21.14715 v -5.84154 h 19.78199 c -0.98988,-3.268 -2.33122,-6.39141 -4.04945,-9.35925 -3.13355,-5.55493 -7.90674,-10.11117 -14.31625,-13.67204 -6.26708,-3.56081 -14.88368,-5.34303 -25.85107,-5.34303 z m 44.21677,28.37432 c 0.57489,1.89792 1.03574,3.8426 1.36516,5.84154 h 27.54601 v 43.97645 h 5.6868 v 85.92527 h 27.17411 v -63.66822 h 38.24937 v 63.66822 h 24.48325 v -58.49431 h -11.5394 v -5.02602 h 11.5394 v -97.66753 h -28.93348 v 58.32851 h -35.89289 v -58.32851 h -30.76716 v 25.4446 z m 124.5047,72.22293 v 5.02602 h 13.2509 v -5.02602 z"
         sodipodi:nodetypes="scccscccccccccccccccccccccccccccsccccccccccscccccccccccccccccccccccccccc" />
      <path
         id="rect1546"
         style="fill:#000000;fill-opacity:1;fill-rule:evenodd;stroke:none;stroke-width:4.94708;stroke-miterlimit:4;stroke-dasharray:none;paint-order:stroke fill markers"
         d="m 493.14579,303.73499 v 6.44488 6.61104 h 71.89571 v -6.61104 h 11.73423 v -6.44488 H 565.0415 Z" />
      <path
         id="path1291"
         style="font-style:normal;font-variant:normal;font-weight:normal;font-stretch:normal;font-size:43.1872px;line-height:1.25;font-family:'Helvetica Neue LT';-inkscape-font-specification:'Helvetica Neue LT';text-decoration:none;text-decoration-line:none;text-decoration-color:#000000;letter-spacing:0px;word-spacing:0px;fill:#000000;stroke-width:8.01189"
         d="m 750.9355,132.69667 c -11.53712,0 -20.72453,1.99402 -27.56134,5.98215 -6.83683,3.84571 -12.10597,9.25948 -15.80924,16.23872 -3.56084,6.97924 -5.91128,15.38148 -7.05076,25.2094 -0.99702,9.68548 -1.49552,20.29608 -1.49552,31.8332 v 38.68967 h -18.22256 v 5.88502 h 22.74495 v -5.88502 h 11.51181 v 5.88502 h -11.51181 v 11.83135 h 17.47862 v 23.07474 h 5.44272 v 7.16835 h 52.90623 v -7.16835 h 10.7781 v -22.86 h 12.70567 v -51.81461 h -25.26819 v -4.82662 h 25.26564 c -0.009,-11.42524 -0.57524,-22.20831 -1.70518,-31.81275 -0.99702,-9.82792 -3.34752,-18.23016 -7.05075,-25.2094 -3.56084,-6.97924 -8.76022,-12.39301 -15.59704,-16.23872 -6.83683,-3.98813 -16.02422,-5.98215 -27.56135,-5.98215 z m 51.91432,79.24302 v 3.83726 h 15.38485 v -4.33321 h -15.38485 z m -122.05374,44.59514 h -41.60406 v 4.29742 h -14.25233 v 3.09845 h 14.25233 v 3.98554 h -28.48166 v -11.38141 h -32.1809 v 7.05842 h -5.05158 v 4.71669 h 5.05158 v 30.00022 h 32.1809 v -2.87603 h 42.68288 v -27.51789 h 27.40284 z m -102.26662,0 v -5.88502 h -14.42617 v 5.88502 z m 32.1809,0 h 28.48166 v -5.88502 h -28.48166 z m 0,-5.88502 v -38.97344 h -3.51004 v -53.34082 h 13.0329 c 5.83979,0 10.47091,1.13908 13.88933,3.41801 3.56083,2.13649 6.1954,5.41167 7.90461,9.82708 1.85164,4.41547 3.06045,9.89895 3.6302,16.45091 0.56974,6.40948 0.85641,13.95935 0.85641,22.6478 0,0.34658 -0.007,0.65424 -0.008,0.99702 h 6.23269 v 35.20264 H 639.1917 v 3.7708 h 41.60406 v -38.97344 h -3.53305 c 0.004,-0.61969 0.0153,-1.22322 0.0153,-1.85088 0,-11.25228 -0.64057,-21.43669 -1.92247,-30.55242 -1.2819,-9.11573 -3.77441,-16.87999 -7.47769,-23.28948 -3.56083,-6.55196 -8.61816,-11.53693 -15.17011,-14.95537 -6.55195,-3.56085 -15.16854,-5.34048 -25.85106,-5.34048 h -48.32759 v 75.98863 h 3.70689 v 38.97344 z M 750.9355,155.34447 c 4.55788,0 8.18946,1.06677 10.8957,3.20327 2.84867,1.99406 4.98729,5.27174 6.41162,9.82963 1.56679,4.5579 2.5638,10.39786 2.99108,17.51952 0.56976,7.12166 0.85386,16.07133 0.85386,26.32657 v 48.6497 h -12.28385 v 6.96639 h -30.01812 v -51.43881 h -10.70907 v -4.46105 h 10.71163 c 0.004,-10.1271 0.21338,-18.98942 0.63657,-26.0428 0.56973,-7.12166 1.56673,-12.96162 2.99106,-17.51952 1.56677,-4.55789 3.70284,-7.83557 6.40909,-9.82963 2.84867,-2.1365 6.55256,-3.20327 11.11043,-3.20327 z" />
      <path
         id="path1293"
         style="font-style:normal;font-variant:normal;font-weight:normal;font-stretch:normal;font-size:43.1872px;line-height:1.25;font-family:'Helvetica Neue LT';-inkscape-font-specification:'Helvetica Neue LT';text-decoration:none;text-decoration-line:none;text-decoration-color:#000000;letter-spacing:0px;word-spacing:0px;fill:#000000;stroke-width:8.01189"
         d="m 883.64206,132.69667 c -9.82792,0 -18.01831,1.63753 -24.57028,4.91355 -6.55195,3.27593 -11.82109,8.19122 -15.80922,14.74318 -3.98819,6.40954 -6.83713,14.45529 -8.5463,24.14079 -1.56678,9.68548 -2.3494,20.93921 -2.3494,33.75823 v 9.68904 h -7.57483 v 21.0679 h 16.60174 v 15.63539 h -10.77042 v 4.44827 h -7.00985 v 3.13935 h 17.78027 v 27.06026 h 21.73769 41.71655 16.36143 v -40.70672 h -8.26507 v -9.49219 h 17.48372 V 229.53846 217.2955 h 10.51477 v -5.61913 h -10.51477 -9.81431 -37.38075 v 17.86209 h 13.7487 v 38.33176 h -28.16466 v -26.86086 h -5.68561 v -32.25248 c 0,-19.08612 1.6376,-32.76 4.91355,-41.02118 3.276,-8.26112 8.61746,-12.39123 16.02398,-12.39123 3.13353,0 5.76813,0.85498 7.90461,2.56415 2.27893,1.56678 4.13091,3.63051 5.55522,6.19433 1.42436,2.42135 2.42132,5.19802 2.99108,8.33155 0.71204,2.9911 1.0686,5.84005 1.0686,8.54629 h 29.48382 c 0,-15.52527 -3.70387,-27.41702 -11.11044,-35.67814 -7.40652,-8.40361 -19.51266,-12.60598 -36.31982,-12.60598 z M 865.0565,293.77242 v 4.84962 h 26.32401 v -4.84962 z" />
      <path
         id="path1295"
         style="font-style:normal;font-variant:normal;font-weight:normal;font-stretch:normal;font-size:43.1872px;line-height:1.25;font-family:'Helvetica Neue LT';-inkscape-font-specification:'Helvetica Neue LT';text-decoration:none;text-decoration-line:none;text-decoration-color:#000000;letter-spacing:0px;word-spacing:0px;fill:#000000;stroke-width:8.01189"
         d="m 999.55258,132.69667 c -14.67066,0 -26.20852,3.70387 -34.61209,11.11044 -8.40357,7.40653 -12.60342,18.65772 -12.60342,33.75567 0,6.2671 0.78262,11.82289 2.34939,16.66566 1.56678,4.70028 3.987,8.9027 7.26295,12.60597 1.64532,1.71387 3.47794,3.32607 5.48618,4.84196 h -7.82024 v 4.04179 h 28.66063 v 18.48074 h 25.36532 v 34.28232 h -26.0658 v -27.5051 h -33.22393 v 2.90671 h 8.91442 v 4.32556 h -8.91442 v 20.27283 h 13.12238 v 29.99512 h 70.24165 v -29.99512 h 11.7393 v -46.37699 h -6.6008 v -5.20242 h -32.6538 v -5.22544 h 25.828 c -3.5953,-2.66457 -8.0401,-5.20847 -13.401,-7.62084 l -23.71639,-10.25402 c -6.55195,-2.70625 -10.8241,-5.62752 -12.81817,-8.76104 -1.99406,-3.27599 -2.99106,-7.26398 -2.99106,-11.96429 0,-2.27893 0.21437,-4.48731 0.64167,-6.62383 0.56973,-2.13651 1.49444,-3.98588 2.77632,-5.55266 1.42434,-1.70918 3.27627,-3.06264 5.55522,-4.05968 2.27893,-0.99703 5.12787,-1.49554 8.54631,-1.49554 5.9822,0 10.2543,1.99401 12.8181,5.98216 2.5639,3.84568 3.8475,9.39896 3.8475,16.66308 h 29.4838 v -4.27186 c 0,-7.26409 -1.2113,-13.4605 -3.6327,-18.58812 -2.279,-5.27006 -5.5541,-9.5422 -9.8271,-12.81816 -4.1306,-3.41843 -9.1181,-5.84116 -14.9579,-7.2655 -5.6973,-1.56677 -11.9635,-2.3494 -18.80032,-2.3494 z m -45.20101,115.51172 v -4.32556 h -12.70568 v 4.32556 z m 89.02663,-36.53202 v 3.91652 h 15.4258 v -3.91652 z" />
    </g>
  </g>
  <metadata
     id="metadata1757">
    <rdf:RDF>
      <cc:Work
         rdf:about="">
        <dc:title></dc:title>
      </cc:Work>
    </rdf:RDF>
  </metadata>
</svg>
