<?xml version="1.0" standalone="no"?>
<!DOCTYPE svg PUBLIC "-//W3C//DTD SVG 20010904//EN"
 "http://www.w3.org/TR/2001/REC-SVG-20010904/DTD/svg10.dtd">
<svg version="1.0" xmlns="http://www.w3.org/2000/svg"
 width="300.000000pt" height="169.000000pt" viewBox="0 0 300.000000 169.000000"
 preserveAspectRatio="xMidYMid meet">
<metadata>
Created by potrace 1.10, written by Peter Selinger 2001-2011
</metadata>
<g transform="translate(0.000000,169.000000) scale(0.100000,-0.100000)"
fill="#000000" stroke="none">
<path d="M1408 1353 c-35 -6 -78 -19 -95 -28 -18 -8 -50 -23 -70 -32 -85 -40
-187 -166 -233 -288 -32 -83 -31 -244 2 -325 27 -68 74 -150 86 -150 7 0 11
-4 8 -9 -10 -16 101 -108 166 -139 91 -43 157 -56 255 -49 90 7 184 35 246 74
48 30 147 126 147 143 0 6 11 26 24 43 45 60 70 152 68 257 -1 80 -6 135 -12
135 -1 0 -3 7 -5 16 -1 9 -16 42 -31 75 -54 112 -205 239 -319 268 -68 17
-176 22 -237 9z m178 -34 c275 -50 451 -330 376 -600 -65 -233 -302 -388 -534
-349 -280 48 -458 314 -393 589 41 173 183 312 363 355 72 18 113 19 188 5z"/>
<path d="M1381 1284 c-124 -33 -236 -129 -294 -251 -31 -65 -32 -74 -32 -189
0 -119 0 -121 37 -196 171 -346 655 -340 821 9 30 65 32 74 32 188 0 114 -2
123 -32 188 -38 80 -122 173 -191 210 -101 55 -232 71 -341 41z m214 -34 c-3
-4 15 -11 39 -14 25 -4 50 -13 56 -21 7 -8 16 -12 21 -9 5 3 9 0 9 -7 0 -7 3
-9 7 -6 8 9 119 -106 139 -145 87 -169 58 -366 -73 -496 -63 -63 -145 -108
-208 -116 -22 -2 -40 -5 -40 -7 0 -1 -10 -3 -22 -4 -16 -2 -23 3 -23 15 0 18
30 24 30 6 1 -17 31 56 34 81 2 13 7 28 13 35 5 7 15 31 22 53 8 22 18 46 23
53 16 19 45 14 65 -12 27 -34 60 -42 84 -20 18 16 19 32 19 244 -1 247 -6 272
-53 263 -24 -5 -62 -55 -50 -67 3 -3 2 -6 -3 -6 -6 0 -18 -25 -29 -56 -10 -31
-24 -58 -31 -61 -16 -6 -60 37 -56 54 2 7 -4 13 -13 13 -8 0 -14 5 -12 11 3
19 -58 22 -73 4 -7 -8 -19 -15 -27 -15 -8 0 -12 -4 -9 -9 4 -5 -4 -25 -16 -45
-23 -35 -38 -45 -38 -26 0 6 -8 23 -17 37 -10 14 -19 37 -21 51 -2 13 -9 31
-17 39 -8 7 -12 20 -9 28 4 8 -1 18 -10 21 -9 3 -13 11 -9 18 3 6 3 8 -1 4 -5
-4 -18 -3 -31 2 -35 13 -60 -20 -58 -78 0 -26 1 -128 2 -227 1 -99 4 -184 9
-190 4 -5 16 -15 27 -21 18 -10 26 -7 55 22 46 46 74 45 95 -3 41 -93 45 -104
45 -114 0 -21 32 -79 41 -73 5 3 9 -5 8 -18 0 -13 -2 -18 -5 -13 -2 6 -21 9
-41 9 -22 -1 -60 9 -88 22 -27 13 -55 23 -60 24 -6 0 -25 14 -44 30 -18 17
-37 27 -43 24 -6 -4 -9 -1 -6 7 3 8 -10 29 -28 47 -18 17 -31 32 -28 32 3 0
-4 16 -17 36 -40 65 -54 179 -35 289 8 48 57 134 104 182 28 28 48 54 44 58
-4 4 0 6 8 3 8 -3 20 1 25 8 6 8 39 25 75 38 53 20 82 25 158 25 50 -1 90 -4
87 -9z m-276 -265 c30 -74 57 -132 61 -130 4 2 31 41 60 85 29 44 58 80 64 80
6 0 36 -38 65 -85 30 -47 55 -85 56 -85 1 0 26 61 56 135 29 74 58 133 64 132
13 -5 19 -463 6 -472 -6 -3 -22 13 -37 35 -26 39 -30 41 -72 38 l-45 -3 -44
-122 c-25 -68 -49 -123 -54 -123 -5 0 -9 6 -9 13 0 6 -19 63 -42 125 l-42 112
-47 0 c-43 0 -48 -3 -74 -40 -15 -22 -31 -38 -34 -34 -11 11 -7 474 4 474 5 0
34 -61 64 -135z"/>
<path d="M1265 869 c0 -98 1 -179 2 -179 4 0 93 132 93 138 0 8 -85 211 -91
216 -2 3 -4 -76 -4 -175z"/>
<path d="M1682 936 l-44 -107 44 -67 43 -66 3 87 c1 48 1 126 0 173 l-3 87
-43 -107z"/>
<path d="M1445 909 l-58 -83 14 -40 14 -41 85 -3 85 -3 15 43 15 43 -53 80
c-30 44 -56 81 -57 83 -1 2 -29 -34 -60 -79z m103 -47 c28 -57 22 -82 -22 -83
-65 -3 -96 9 -96 36 0 22 60 95 78 95 10 0 26 -18 40 -48z"/>
<path d="M1347 770 l-18 -30 35 0 c34 0 34 0 23 30 -6 17 -14 30 -17 30 -3 0
-14 -13 -23 -30z"/>
<path d="M1616 778 c-9 -36 -8 -38 25 -38 l30 0 -18 30 c-21 36 -29 37 -37 8z"/>
<path d="M1433 708 c54 -146 72 -188 76 -177 2 8 19 53 37 102 l32 87 -75 0
c-56 0 -74 -3 -70 -12z m87 -32 c0 -2 -3 -12 -6 -20 -5 -13 -9 -14 -20 -5 -20
16 -17 29 6 29 11 0 20 -2 20 -4z"/>
<path d="M1055 212 c-42 -5 -62 -27 -67 -74 -3 -31 1 -45 19 -64 21 -23 26
-24 176 -24 136 0 158 2 178 18 29 25 29 96 -1 126 -18 18 -34 20 -147 21 -71
0 -141 -1 -158 -3z m295 -79 l0 -48 -165 0 -165 0 0 48 0 47 165 0 165 0 0
-47z"/>
<path d="M1030 140 c0 -25 4 -30 23 -29 16 1 18 2 5 6 -10 2 -18 13 -18 23 0
10 8 21 18 23 13 4 11 5 -5 6 -19 1 -23 -4 -23 -29z"/>
<path d="M1080 161 c0 -5 5 -13 10 -16 6 -3 10 -11 10 -16 0 -6 -4 -7 -10 -4
-5 3 -10 1 -10 -4 0 -6 7 -11 16 -11 11 0 14 8 12 27 -3 25 -28 47 -28 24z"/>
<path d="M1164 159 c-3 -5 3 -6 12 -2 16 6 16 4 -2 -20 -10 -14 -26 -28 -34
-30 -8 -2 1 -2 20 1 19 2 44 5 55 6 14 1 20 8 20 26 0 21 -5 25 -33 26 -18 1
-35 -2 -38 -7z"/>
<path d="M1290 161 c0 -5 5 -13 10 -16 6 -3 10 -11 10 -16 0 -6 -4 -7 -10 -4
-5 3 -10 1 -10 -4 0 -6 7 -11 16 -11 11 0 14 8 12 27 -3 25 -28 47 -28 24z"/>
<path d="M1740 200 c-202 -5 -205 -5 -216 -28 -14 -28 -8 -55 16 -77 15 -14
47 -16 221 -16 183 0 205 2 221 19 28 27 30 57 5 79 -12 11 -26 22 -32 24 -5
2 -102 2 -215 -1z m-160 -44 c0 -6 5 -4 10 4 9 13 10 13 9 0 -1 -21 -17 -58
-18 -41 -1 11 -4 11 -16 1 -12 -10 -15 -10 -15 1 0 8 -3 24 -6 36 -5 18 -3 21
15 16 12 -3 21 -10 21 -17z m156 11 c8 3 14 -1 14 -8 0 -11 3 -11 10 1 7 11
10 7 10 -17 0 -18 5 -33 10 -33 6 0 10 14 10 30 0 23 4 30 20 30 32 0 27 -48
-6 -60 -36 -14 -44 -13 -45 8 0 10 -3 12 -6 5 -7 -20 -23 -15 -23 6 0 10 -7
21 -15 25 -11 4 -15 -1 -15 -17 0 -18 2 -19 10 -7 8 13 10 12 10 -2 0 -21 -28
-24 -36 -4 -8 21 15 61 28 48 6 -6 17 -8 24 -5z m238 -8 c-3 -5 -11 -7 -17 -3
-7 3 -3 -2 7 -10 16 -13 17 -19 8 -28 -10 -10 -17 -10 -32 0 -12 7 -20 8 -20
2 0 -5 -7 -10 -15 -10 -10 0 -15 10 -15 31 0 28 3 31 25 27 14 -3 28 -2 31 3
2 4 11 6 19 3 8 -4 12 -10 9 -15z m-302 -19 c-3 -21 -10 -30 -23 -30 -11 0
-19 5 -19 11 0 8 -5 8 -15 -1 -18 -15 -18 -10 -5 24 7 20 17 26 38 26 26 0 28
-3 24 -30z m208 -1 c0 -24 -4 -30 -17 -27 -11 2 -19 14 -21 31 -3 22 1 27 17
27 17 0 21 -6 21 -31z"/>
</g>
</svg>
